<?xml version="1.0" encoding="iso-8859-1"?>
<!-- Generator: Adobe Illustrator 18.1.1, SVG Export Plug-In . SVG Version: 6.00 Build 0)  -->
<svg version="1.1" id="Capa_1" xmlns="http://www.w3.org/2000/svg" xmlns:xlink="http://www.w3.org/1999/xlink" x="0px" y="0px"
	 viewBox="0 0 53.313 53.313" style="enable-background:new 0 0 53.313 53.313;" xml:space="preserve">
<g>
	<g>
		<path style="fill:#2C3E50;" d="M7.186,5.095c-1.282,0-2.325,1.043-2.325,2.325v29.302c0,1.282,1.043,2.325,2.325,2.325h38.941
			c1.282,0,2.325-1.043,2.325-2.325V7.419c0-1.282-1.043-2.325-2.325-2.325L7.186,5.095L7.186,5.095z M45.452,36.046H7.862V8.095
			h37.59V36.046z"/>
		<path style="fill:#2C3E50;" d="M9.913,30.753H43.4c0.276,0,0.5-0.224,0.5-0.5V10.127c0-0.276-0.224-0.5-0.5-0.5H9.913
			c-0.276,0-0.5,0.224-0.5,0.5v20.126C9.413,30.529,9.636,30.753,9.913,30.753z M10.413,10.627H42.9v19.126H10.413V10.627z"/>
		<path style="fill:#2C3E50;" d="M51.813,40.841H1.5c-0.829,0-1.5,0.671-1.5,1.5v3.553c0,1.282,1.043,2.325,2.325,2.325h48.663
			c1.282,0,2.325-1.043,2.325-2.325v-3.553C53.313,41.513,52.641,40.841,51.813,40.841z M50.313,45.219H3v-1.378h47.312
			L50.313,45.219L50.313,45.219z"/>
	</g>

</g>
<g>
</g>
<g>
</g>
<g>
</g>
<g>
</g>
<g>
</g>
<g>
</g>
<g>
</g>
<g>
</g>
<g>
</g>
<g>
</g>
<g>
</g>
<g>
</g>
<g>
</g>
<g>
</g>
<g>
</g>
</svg>
