<svg width="1920" height="2048" xmlns="http://www.w3.org/2000/svg" preserveAspectRatio="xMidYMid meet">

 <g>
  <title>background</title>
  <rect fill="none" id="canvas_background" height="7235.118107" width="6330.978344" y="-1" x="-1"/>
 </g>
 <g>
  <title>Layer 1</title>
  <path fill="#2c3e50" id="svg_1" d="m416,1408c-44,0 -81.666992,-15.666992 -113,-47s-47,-69 -47,-113l0,-704c0,-44 15.666992,-81.666992 47,-113s69,-47 113,-47l1088,0c44,0 81.666992,15.666992 113,47s47,69 47,113l0,704c0,44 -15.666992,81.666992 -47,113s-69,47 -113,47l-1088,0zm-32,-864l0,704c0,8.666992 3.166992,16.166992 9.5,22.5s13.833008,9.5 22.5,9.5l1088,0c8.666992,0 16.166992,-3.166992 22.5,-9.5s9.5,-13.833008 9.5,-22.5l0,-704c0,-8.666992 -3.166992,-16.166992 -9.5,-22.5s-13.833008,-9.5 -22.5,-9.5l-1088,0c-8.666992,0 -16.166992,3.166992 -22.5,9.5s-9.5,13.833008 -9.5,22.5zm1376,928l160,0l0,96c0,26.666992 -15.666992,49.333008 -47,68s-69,28 -113,28l-1600,0c-44,0 -81.667,-9.333008 -113,-28s-47,-41.333008 -47,-68l0,-96l160,0l1600,0zm-720,96c10.666992,0 16,-5.333008 16,-16s-5.333008,-16 -16,-16l-160,0c-10.666992,0 -16,5.333008 -16,16s5.333008,16 16,16l160,0z"/>
 </g>
</svg>