<?xml version="1.0" encoding="utf-8"?>
<!-- Svg Vector Icons : http://www.onlinewebfonts.com/icon -->
<!DOCTYPE svg PUBLIC "-//W3C//DTD SVG 1.1//EN" "http://www.w3.org/Graphics/SVG/1.1/DTD/svg11.dtd">
<svg version="1.1" xmlns="http://www.w3.org/2000/svg" xmlns:xlink="http://www.w3.org/1999/xlink" x="0px" y="0px" viewBox="0 0 1000 1000" enable-background="new 0 0 1000 1000" xml:space="preserve" style="color: #2C3E50">
<metadata> Svg Vector Icons : http://www.onlinewebfonts.com/icon </metadata>
<g><path d="M855.6,202.3c0-16-5.6-29.6-16.8-40.8c-11.2-11.2-24.8-16.8-40.8-16.8c-16,0-29.6,5.6-40.8,16.8s-16.8,24.8-16.8,40.8s5.6,29.6,16.8,40.8c11.2,11.2,24.8,16.8,40.8,16.8s29.6-5.6,40.8-16.8C850,231.9,855.6,218.3,855.6,202.3z M990,29.5c0,99.6-15.1,185.7-45.3,258.4s-80.9,144.7-152.1,216.3c-32.4,32-71.4,67.2-117,105.6l-12,227.5c-0.8,6.4-4,11.6-9.6,15.6L423.5,987.3c-2.8,1.6-6,2.4-9.6,2.4c-4.8,0-9.4-1.8-13.8-5.4l-38.4-38.4c-5.2-5.6-6.8-12-4.8-19.2l51-165.6L239.2,592.4l-165.6,51c-1.2,0.4-3,0.6-5.4,0.6c-5.6,0-10.2-1.8-13.8-5.4L16,600.2c-6.8-7.6-7.8-15.4-3-23.4l134.4-230.5c4-5.6,9.2-8.8,15.6-9.6l227.5-12c38.4-45.6,73.6-84.6,105.6-117c75.2-74.8,146.8-126.4,214.8-154.8c68-28.4,154.2-42.6,258.7-42.6c5.6,0,10.4,1.9,14.4,5.7S990,24.3,990,29.5L990,29.5z"/></g>
</svg>