<svg width="1636" height="2048" xmlns="http://www.w3.org/2000/svg" preserveAspectRatio="xMidYMid meet">

 <g>
  <title>background</title>
  <rect fill="none" id="canvas_background" height="7235.118107" width="6330.978344" y="-1" x="-1"/>
 </g>
 <g>
  <title>Layer 1</title>
  <path fill="#2c3e50" id="svg_1" d="m1411.428955,493.858398c0,-26.666992 -9.333008,-49.333008 -28,-68s-41.333008,-28 -68,-28s-49.333008,9.333008 -68,28s-28,41.333008 -28,68s9.333008,49.333008 28,68c18.666992,18.666992 41.333008,28 68,28s49.333008,-9.333008 68,-28c18.666992,-18.666992 28,-41.333008 28,-68zm224,-288c0,166 -25.166992,309.5 -75.5,430.5s-134.833008,241.166992 -253.5,360.5c-54,53.333008 -119,112 -195,176l-20,379c-1.333008,10.666992 -6.666992,19.333008 -16,26l-383.999939,224c-4.666992,2.666992 -10,4 -16,4c-8,0 -15.666992,-3 -23,-9l-64,-64c-8.666992,-9.333008 -11.333008,-20 -8,-32l85,-276l-281,-281l-276.000008,85c-2,0.666992 -5,1 -9,1c-9.333,0 -17,-3 -23,-9l-64.000002,-64c-11.333,-12.666992 -13,-25.666992 -5,-39l223.999994,-384c6.666992,-9.333008 15.333008,-14.666992 26.000015,-16l379,-20c64,-76 122.666992,-141 176,-195c125.333008,-124.666992 244.666931,-210.666992 357.999939,-258s257,-71 431,-71c9.333008,0 17.333008,3.166992 24,9.5s10,13.833008 10,22.5z"/>
 </g>
</svg>