<svg xmlns:dc="http://purl.org/dc/elements/1.1/" xmlns:cc="http://creativecommons.org/ns#" xmlns:rdf="http://www.w3.org/1999/02/22-rdf-syntax-ns#" xmlns:svg="http://www.w3.org/2000/svg" xmlns="http://www.w3.org/2000/svg" xmlns:sodipodi="http://sodipodi.sourceforge.net/DTD/sodipodi-0.dtd" xmlns:inkscape="http://www.inkscape.org/namespaces/inkscape" version="1.1" x="0px" y="0px" viewBox="0 0 100 125"><g transform="translate(0,-952.36218)"><path style="text-indent:0;text-transform:none;direction:ltr;block-progression:tb;baseline-shift:baseline;color:#616e7c;enable-background:accumulate;" d="m 80.875,958.36265 c -0.4069,0.019 -0.7876,0.1484 -1.125,0.375 l -27.8124,17.6563 -25.1876,0 c -6.0684,0 -10.8999,2.3496 -14.0624,5.875 C 9.5241,985.79435 8,990.40405 8,994.98765 c 0,4.5839 1.5241,9.19345 4.6876,12.71885 3.1625,3.5254 7.994,5.8749 14.0624,5.8749 l 1.3438,0 9.75,25.0625 c 0.805,1.911 1.6967,3.3941 2.8125,4.5625 2.1887,2.061 4.5804,3.1419 7.5937,3.1562 3.8293,0 6.9928,-1.5206 9.0313,-3.8124 2.0381,-2.2921 3,-5.2853 3,-8.2188 0,-2.9335 -0.9619,-5.8954 -3,-8.1875 -1.7653,-1.9847 -4.3479,-3.3469 -7.5,-3.6875 l -3.875,-8.875 6,0 27.8437,17.6875 c 1.3373,0.864 3.4473,-0.2637 3.4376,-1.8437 l 0,-22.3125 5.25,0 c 1.4093,0 1.8665,-0.5724 2.4374,-1.1874 0.5709,-0.6153 1.125,-1.5071 1.125,-2.6563 l 0,-16.59375 c 0,-1.1811 -0.5733,-2.0807 -1.1562,-2.6876 -0.5832,-0.6066 -1.0592,-1.1562 -2.4688,-1.1562 l -5.1874,0 0,-22.2812 c 0,-1.1748 -1.1263,-2.224 -2.3126,-2.1876 z m -54.125,22.4376 23.5938,0 0,28.37505 -23.5938,0 c -4.9561,0 -8.3691,-1.757 -10.7187,-4.375 -2.3489,-2.6183 -3.5937,-6.20495 -3.5937,-9.81265 0,-3.6074 1.2448,-7.163 3.5937,-9.7812 2.3496,-2.6182 5.7626,-4.4062 10.7187,-4.4062 z m 56.4376,6.4374 4.3437,0 0,15.50005 -4.3437,0 0,-15.50005 z m -50.3126,26.34375 8.2188,0 5.125,11.8125 c 0.3341,0.7796 1.176,1.3316 2.0312,1.3437 2.7068,0 4.4587,0.9614 5.6876,2.3438 1.2297,1.3824 1.9062,3.2842 1.9062,5.25 0,1.9658 -0.6765,3.899 -1.9062,5.2812 -1.2161,1.3675 -2.9367,2.2926 -5.5938,2.3126 -2.4768,-0.1925 -3.6489,-0.9122 -4.5,-1.7813 -0.8479,-0.8664 -1.3428,-1.9801 -1.875,-3.1563 l -9.0938,-23.4062 z" fill="#2C3E50" fill-opacity="1" fill-rule="evenodd" stroke="none" marker="none" visibility="visible" display="inline" overflow="visible"/></g><text x="0" y="115" fill="#2C3E50" font-size="5px" font-weight="bold" font-family="'Helvetica Neue', Helvetica, Arial-Unicode, Arial, Sans-serif">Created by Danishicon</text><text x="0" y="120" fill="#2C3E50" font-size="5px" font-weight="bold" font-family="'Helvetica Neue', Helvetica, Arial-Unicode, Arial, Sans-serif">from the Noun Project</text></svg>