<svg width="1792" height="2048" xmlns="http://www.w3.org/2000/svg" preserveAspectRatio="xMidYMid meet">
 <g>
  <title>background</title>
  <rect x="-1" y="-1" width="6330.978344" height="7235.118107" id="canvas_background" fill="none"/>
 </g>

 <g>
  <title>Layer 1</title>
  <path d="m1664,768c35.333008,0 65.5,12.5 90.5,37.5s37.5,55.166992 37.5,90.5s-12.5,65.5 -37.5,90.5s-55.166992,37.5 -90.5,37.5l0,384c0,34.666992 -12.666992,64.666992 -38,90s-55.333008,38 -90,38c-278,-231.333008 -548.666992,-358 -812,-380c-38.666992,12.666992 -69,34.666992 -91,66s-32.333008,64.833008 -31,100.5s14.666992,66.5 40,92.5c-13.333008,22 -21,43.833008 -23,65.5s0,41 6,58s17.166992,35.333008 33.5,55s32.333008,36.333008 48,50s36.166992,30.5 61.5,50.5c-19.333008,38.666992 -56.5,66.333008 -111.5,83s-111.166992,20.5 -168.5,11.5s-101.333008,-27.5 -132,-55.5c-4.666992,-15.333008 -14.5,-44.5 -29.5,-87.5s-25.666992,-74.5 -32,-94.5s-14,-49.666992 -23,-89s-14,-73 -15,-101s0.166992,-60.833008 3.5,-98.5s10.666992,-74.5 22,-110.5l-122,0c-44,0 -81.667,-15.666992 -113,-47s-47,-69 -47,-113l0,-192c0,-44 15.667,-81.666992 47,-113s69,-47 113,-47l480,0c290,0 588.666992,-128 896,-384c34.666992,0 64.666992,12.666992 90,38s38,55.333008 38,90l0,384zm-128,604l0,-954c-262.666992,201.333008 -518.666992,315.666992 -768,343l0,270c251.333008,28 507.333008,141.666992 768,341z" id="svg_1" fill="#2c3e50"/>
 </g>
</svg>