<svg width="1536" height="2048" xmlns="http://www.w3.org/2000/svg" preserveAspectRatio="xMidYMid meet">

 <g>
  <title>background</title>
  <rect fill="none" id="canvas_background" height="402" width="582" y="-1" x="-1"/>
 </g>
 <g>
  <title>Layer 1</title>
  <path fill="#e87e04" id="svg_1" d="m1134,1203c-24.666992,80.666992 -70.666992,145.666992 -138,195s-143.333008,74 -228,74s-160.666992,-24.666992 -228,-74s-113.333008,-114.333008 -138,-195c-5.333008,-16.666992 -4,-32.833008 4,-48.5c8,-15.666992 20.666992,-26.166992 38,-31.5c16.666992,-5.333008 32.833008,-4 48.5,4s26.166992,20.666992 31.5,38c16.666992,53.333008 47.5,96.5 92.5,129.5s95.5,49.5 151.5,49.5s106.5,-16.5 151.5,-49.5s75.833008,-76.166992 92.5,-129.5c5.333008,-17.333008 16,-30 32,-38s32.333008,-9.333008 49,-4s29,15.833008 37,31.5c8,15.666992 9.333008,31.833008 4,48.5zm-494,-435c0,35.333008 -12.5,65.5 -37.5,90.5s-55.166992,37.5 -90.5,37.5s-65.5,-12.5 -90.5,-37.5s-37.5,-55.166992 -37.5,-90.5s12.5,-65.5 37.5,-90.5s55.166992,-37.5 90.5,-37.5s65.5,12.5 90.5,37.5s37.5,55.166992 37.5,90.5zm512,0c0,35.333008 -12.5,65.5 -37.5,90.5s-55.166992,37.5 -90.5,37.5c-35.333008,0 -65.5,-12.5 -90.5,-37.5s-37.5,-55.166992 -37.5,-90.5s12.5,-65.5 37.5,-90.5s55.166992,-37.5 90.5,-37.5c35.333008,0 65.5,12.5 90.5,37.5s37.5,55.166992 37.5,90.5zm256,256c0,-86.666992 -17,-169.5 -51,-248.5s-79.5,-147 -136.5,-204s-125,-102.5 -204,-136.5s-161.833008,-51 -248.5,-51s-169.5,17 -248.5,51s-147,79.5 -204,136.5s-102.5,125 -136.5,204s-51,161.833008 -51,248.5s17,169.5 51,248.5s79.5,147 136.5,204s125,102.5 204,136.5s161.833008,51 248.5,51s169.5,-17 248.5,-51s147,-79.5 204,-136.5s102.5,-125 136.5,-204s51,-161.833008 51,-248.5zm128,0c0,139.333008 -34.333008,267.833008 -103,385.5s-161.833008,210.833008 -279.5,279.5s-246.166992,103 -385.5,103s-267.833008,-34.333008 -385.5,-103s-210.832993,-161.833008 -279.5,-279.5s-103,-246.166992 -103,-385.5s34.333,-267.833008 103,-385.5s161.833008,-210.833008 279.5,-279.5s246.166992,-103 385.5,-103s267.833008,34.333008 385.5,103s210.833008,161.833008 279.5,279.5s103,246.166992 103,385.5z"/>
 </g>
</svg>