<svg width="1664" height="2048" xmlns="http://www.w3.org/2000/svg" preserveAspectRatio="xMidYMid meet">

 <g>
  <title>background</title>
  <rect fill="none" id="canvas_background" height="402" width="582" y="-1" x="-1"/>
 </g>
 <g>
  <title>Layer 1</title>
  <path fill="#e87e04" id="svg_1" d="m458,1011c-49.333008,-108 -74,-231.666992 -74,-371l-256,0l0,96c0,52 31.5,106 94.5,162s141.5,93.666992 235.5,113zm1078,-275l0,-96l-256,0c0,139.333008 -24.666992,263 -74,371c94,-19.333008 172.5,-57 235.5,-113s94.5,-110 94.5,-162zm128,-128l0,128c0,47.333008 -13.833008,95 -41.5,143s-65,91.333008 -112,130c-47,38.666992 -104.666992,71.166992 -173,97.5s-140.166992,41.166992 -215.5,44.5c-28,36 -59.666992,67.666992 -95,95c-25.333008,22.666992 -42.833008,46.833008 -52.5,72.5s-14.5,55.5 -14.5,89.5c0,36 10.166992,66.333008 30.5,91s52.833008,37 97.5,37c50,0 94.5,15.166992 133.5,45.5s58.5,68.5 58.5,114.5l0,64c0,9.333008 -3,17 -9,23s-13.666992,9 -23,9l-832,0c-9.333008,0 -17,-3 -23,-9s-9,-13.666992 -9,-23l0,-64c0,-46 19.5,-84.166992 58.5,-114.5s83.5,-45.5 133.5,-45.5c44.666992,0 77.166992,-12.333008 97.5,-37s30.5,-55 30.5,-91c0,-34 -4.833008,-63.833008 -14.5,-89.5s-27.166992,-49.833008 -52.5,-72.5c-35.333008,-27.333008 -67,-59 -95,-95c-75.333008,-3.333008 -147.166992,-18.166992 -215.5,-44.5s-126,-58.833008 -173,-97.5c-47,-38.666992 -84.333,-82 -112,-130s-41.5,-95.666992 -41.5,-143l0,-128c0,-26.666992 9.333,-49.333008 28,-68s41.333,-28 68,-28l288,0l0,-96c0,-44 15.666992,-81.666992 47,-113s69,-47 113,-47l576,0c44,0 81.666992,15.666992 113,47s47,69 47,113l0,96l288,0c26.666992,0 49.333008,9.333008 68,28s28,41.333008 28,68z"/>
 </g>
</svg>