<svg width="1830" height="2048" xmlns="http://www.w3.org/2000/svg" preserveAspectRatio="xMidYMid meet">

 <g>
  <title>background</title>
  <rect fill="none" id="canvas_background" height="7235.118107" width="6330.978344" y="-1" x="-1"/>
 </g>
 <g>
  <title>Layer 1</title>
  <path fill="#e87e04" id="svg_1" d="m571.096497,1505.813721l-50,50c-6.666992,6.666992 -14.332977,10 -22.999969,10s-16.333008,-3.333008 -23,-10l-466.000004,-466c-6.667,-6.666992 -10,-14.333008 -10,-23s3.333,-16.333008 10,-23l466.000004,-465.999939c6.666992,-6.666992 14.333008,-10 23,-10s16.332977,3.333008 22.999969,10l50,50c6.666992,6.666992 10,14.333008 10,23s-3.333008,16.333008 -10,23l-392.999969,392.999939l392.999969,393c6.666992,6.666992 10,14.333008 10,23s-3.333008,16.333008 -10,23zm591.000061,-1066.999939l-373.000061,1290.999939c-2.666992,8.666992 -7.833008,15.166992 -15.5,19.5s-15.5,5.166992 -23.5,2.5l-62,-17c-8.666992,-2.666992 -15.166992,-7.833008 -19.5,-15.5s-5.166992,-15.833008 -2.5,-24.5l373.000061,-1290.999939c2.666992,-8.666992 7.833008,-15.166992 15.5,-19.5s15.5,-5.166992 23.5,-2.5l62,17c8.666992,2.666992 15.166992,7.833008 19.5,15.5s5.166992,15.833008 2.5,24.5zm657,650.999939l-466,466c-6.666992,6.666992 -14.333008,10 -23,10s-16.333008,-3.333008 -23,-10l-50,-50c-6.666992,-6.666992 -10,-14.333008 -10,-23s3.333008,-16.333008 10,-23l393,-393l-393,-392.999939c-6.666992,-6.666992 -10,-14.333008 -10,-23s3.333008,-16.333008 10,-23l50,-50c6.666992,-6.666992 14.333008,-10 23,-10s16.333008,3.333008 23,10l466,465.999939c6.666992,6.666992 10,14.333008 10,23s-3.333008,16.333008 -10,23z"/>
 </g>
</svg>