<svg width="1663" height="2048" xmlns="http://www.w3.org/2000/svg" preserveAspectRatio="xMidYMid meet">

 <g>
  <title>background</title>
  <rect fill="none" id="canvas_background" height="7235.118107" width="6330.978344" y="-1" x="-1"/>
 </g>
 <g>
  <title>Layer 1</title>
  <path fill="#e87e04" id="svg_1" d="m1408,1058l0,318c0,79.333008 -28.166992,147.166992 -84.5,203.5s-124.166992,84.5 -203.5,84.5l-832,0c-79.332993,0 -147.167007,-28.166992 -203.5,-84.5s-84.5,-124.166992 -84.5,-203.5l0,-832c0,-79.333008 28.167,-147.166992 84.5,-203.5s124.167007,-84.5 203.5,-84.5l832,0c42,0 81,8.333008 117,25c10,4.666992 16,12.333008 18,23c2,11.333008 -1,21 -9,29l-49,49c-6.666992,6.666992 -14.333008,10 -23,10c-2,0 -5,-0.666992 -9,-2c-15.333008,-4 -30.333008,-6 -45,-6l-832,0c-44,0 -81.667007,15.666992 -113,47s-47,69 -47,113l0,832c0,44 15.667007,81.666992 47,113s69,47 113,47l832,0c44,0 81.666992,-15.666992 113,-47s47,-69 47,-113l0,-254c0,-8.666992 3,-16 9,-22l64,-64c6.666992,-6.666992 14.333008,-10 23,-10c4,0 8,1 12,3c13.333008,5.333008 20,15 20,29zm231,-489l-814,814c-16,16 -35,24 -57,24s-41,-8 -57,-24l-430,-430c-16,-16 -24,-35 -24,-57s8,-41 24,-57l110,-110c16,-16 35,-24 57,-24s41,8 57,24l263,263l647,-647c16,-16 35,-24 57,-24s41,8 57,24l110,110c16,16 24,35 24,57s-8,41 -24,57z"/>
 </g>
</svg>